<?xml version="1.0" encoding="utf-8"?>
<!-- Generator: Adobe Illustrator 16.0.3, SVG Export Plug-In . SVG Version: 6.00 Build 0)  -->
<!DOCTYPE svg PUBLIC "-//W3C//DTD SVG 1.1//EN" "http://www.w3.org/Graphics/SVG/1.1/DTD/svg11.dtd">
<svg version="1.1" id="Capa_1" xmlns="http://www.w3.org/2000/svg" xmlns:xlink="http://www.w3.org/1999/xlink" x="0px" y="0px"
	 width="595.28px" height="841.89px" viewBox="0 0 595.28 841.89" enable-background="new 0 0 595.28 841.89" xml:space="preserve">
<g>
	<path fill="#0F0917" d="M329.023,510.754c6.463,0,11.953,0,17.443,0c9.26,0,18.518-0.006,27.775,0.004
		c1.377,0.002,2.779-0.082,4.127,0.137c2.633,0.426,4.223,2.361,4.225,4.861c0.002,2.48-1.613,4.555-4.131,4.994
		c-1.344,0.234-2.75,0.135-4.127,0.135c-33.289-0.002-66.578-0.008-99.868-0.035c-1.763,0-3.569,0.02-5.277-0.34
		c-2.357-0.498-3.728-2.082-3.77-4.615c-0.042-2.559,1.428-4.48,4.108-4.957c1.533-0.273,3.139-0.184,4.712-0.186
		c12.606-0.01,25.213-0.002,37.819,0.002c1.938,0,3.875,0,6.207,0c0.215-1.895,0.529-3.385,0.531-4.875
		c0.035-21.668-0.049-43.336,0.113-65.002c0.025-3.455-1.355-6.012-3.148-8.627c-21.592-31.509-43.176-63.026-64.754-94.546
		c-5.116-7.475-10.174-14.991-15.315-22.448c-1.396-2.022-2.582-3.919-1.266-6.494c1.322-2.585,3.61-2.745,6.03-2.761
		c1.182-0.008,2.363-0.006,3.546-0.006c53.38,0.002,106.761,0.003,160.142,0.009c1.771,0,3.564-0.119,5.313,0.099
		c3.971,0.495,5.75,3.65,4.084,7.252c-0.654,1.413-1.672,2.663-2.563,3.961c-26.254,38.342-52.479,76.703-78.828,114.98
		c-2.24,3.256-3.205,6.473-3.18,10.393c0.133,20.289,0.055,40.578,0.051,60.865C329.023,505.68,329.023,507.805,329.023,510.754z
		 M249.866,315.734c-0.221,0.497-0.441,0.995-0.662,1.491c24.755,36.129,49.509,72.257,74.908,109.326
		c0.973-1.52,1.48-2.357,2.031-3.166c4.754-6.963,9.516-13.922,14.738-21.561c-7.377,0.089-13.648-1.175-18.906-5.459
		c-5.477-4.461-8.52-10.276-9.01-17.294c-0.381-5.467,1.111-10.504,4.205-15.07c4.77-7.045,12.002-9.696,20.129-10.867
		c0-1.936-0.006-3.48,0-5.024c0.051-11.118,6.547-20.054,16.77-23.067c10.75-3.17,20.949,0.588,27.285,10.02
		c0.723,1.073,1.598,2.044,2.807,3.576c5.145-7.539,9.955-14.592,15.6-22.863C348.832,315.701,299.35,315.779,249.866,315.734z
		 M337.09,391.451c7.67-0.063,13.721-6.294,13.625-14.031c-0.096-7.65-6.363-13.743-14.023-13.632
		c-7.787,0.113-13.674,6.179-13.598,14.009C323.17,385.508,329.326,391.514,337.09,391.451z M360.697,361.747
		c7.756,0.15,14.383-6.36,14.367-14.12c-0.014-7.272-6.16-13.194-13.605-13.55c-6.441-0.308-13.656,4.123-14.342,13.402
		C346.57,354.839,353.289,361.602,360.697,361.747z"/>
	<path fill="#0F0917" d="M199.558,325.538c6.366,8.573,14.29,13.649,23.946,16.046c2.841,0.705,5.815,0.915,8.744,1.208
		c4.269,0.427,5.872,1.741,5.863,5.045c-0.01,3.337-2.266,5.295-6.511,5.055c-9.185-0.519-17.854-2.947-25.714-7.852
		c-20.242-12.631-29.412-36.99-22.484-59.608c6.946-22.68,28.117-38.135,51.822-37c20.586,0.986,35.654,11.181,45.228,29.442
		c0.454,0.866,0.904,1.772,1.126,2.715c0.622,2.648-0.426,5.039-2.515,6.036c-2.354,1.122-4.949,0.331-6.574-2.219
		c-1.266-1.988-2.192-4.195-3.47-6.175c-6.864-10.643-16.467-17.118-29.878-19.341c0,3.915,0,7.403,0,10.892
		c0,4.926,0.076,9.853-0.024,14.776c-0.09,4.411-1.845,6.423-5.231,6.341c-3.072-0.075-4.805-2.045-4.877-6.117
		c-0.122-6.895-0.018-13.792-0.051-20.688c-0.008-1.543-0.19-3.085-0.337-5.293c-11.768,1.476-20.868,6.645-28.42,15.942
		c6.053,3.529,11.65,6.776,17.229,10.054c2.205,1.296,4.483,2.507,6.521,4.032c2.298,1.72,2.786,4.1,1.674,6.219
		c-1.249,2.379-3.841,3.462-6.576,2.05c-5.595-2.888-11.004-6.136-16.488-9.236c-2.365-1.337-4.729-2.676-7.064-3.998
		c-5.394,8.583-5.779,21.219-1.037,31.856c1.173-0.441,2.457-0.745,3.56-1.369c5.998-3.395,11.924-6.917,17.929-10.297
		c4.197-2.363,7.393-2.039,8.839,0.694c1.519,2.871,0.219,5.727-3.741,8.03c-5.446,3.167-10.932,6.269-16.373,9.443
		C203.034,323.177,201.481,324.284,199.558,325.538z"/>
	<path fill="#0F0917" d="M302.6,333.315c4.139,0,8.275-0.007,12.414,0.004c1.182,0.002,2.379-0.062,3.541,0.107
		c2.531,0.367,4.443,2.413,4.352,4.743c-0.096,2.408-1.313,4.158-3.768,4.62c-1.73,0.325-3.523,0.438-5.287,0.437
		c-7.684-0.01-15.368-0.096-23.05-0.155c-1.183-0.009-2.374,0.068-3.545-0.053c-3.437-0.356-5.386-2.322-5.217-5.154
		c0.157-2.648,1.941-4.395,5.192-4.495c5.117-0.157,10.244-0.042,15.368-0.042C302.6,333.323,302.6,333.319,302.6,333.315z"/>
</g>
</svg>
