<?xml version="1.0" encoding="utf-8"?>
<!-- Generator: Adobe Illustrator 16.0.3, SVG Export Plug-In . SVG Version: 6.00 Build 0)  -->
<!DOCTYPE svg PUBLIC "-//W3C//DTD SVG 1.1//EN" "http://www.w3.org/Graphics/SVG/1.1/DTD/svg11.dtd">
<svg version="1.1" id="Capa_1" xmlns="http://www.w3.org/2000/svg" xmlns:xlink="http://www.w3.org/1999/xlink" x="0px" y="0px"
	 width="595.279px" height="841.89px" viewBox="0 0 595.279 841.89" enable-background="new 0 0 595.279 841.89"
	 xml:space="preserve">
<path fill="#E53333" d="M511.63,490.49c-0.051,1.16-0.11,2.311-0.2,3.4c-0.069,0.879-0.22,1.65-0.439,2.32
	c0.521-1.23,0.681-2.25,0.681-2.25L511.63,490.49z M461.09,500.339c-0.609,0.16-1.17,0.25-1.689,0.291h3.271
	c0,0,31.13,0.27,40.739,0.08c-0.199-0.031-0.319-0.051-0.319-0.051S469.09,498.23,461.09,500.339z M422.17,264.22l0.199,0.37
	c10.78,2.13,16.82,3.31,19.7,3.85c-0.03-0.04-0.061-0.09-0.101-0.13C436.38,267.12,422.17,264.22,422.17,264.22z"/>
<path d="M502.67,500.63c0.271,0.02,0.42,0.029,0.42,0.029s0.119,0.02,0.319,0.051c1.011-0.021,1.78-0.051,2.261-0.08H502.67z"/>
<path fill="#3934E2" d="M121.42,474.23h0.77l-0.149,21.699c-0.62-1.289-0.62-2.369-0.62-2.369V474.23L121.42,474.23z"/>
<path fill="#3934E2" d="M458.199,500.63h1.2C458.97,500.669,458.579,500.669,458.199,500.63z"/>
<path fill="#3934E2" d="M510.99,496.21c-1.521,4.92-6.29,4.66-7.58,4.5c1.011-0.021,1.78-0.051,2.261-0.08
	C508.67,500.429,510.23,498.07,510.99,496.21z"/>
<path fill="#3934E2" d="M511.63,490.49l-0.21-16.26h0.01C511.43,474.23,511.93,482.791,511.63,490.49z"/>
<path fill="#3934E2" d="M442.07,268.45v-0.01c-2.88-0.54-8.92-1.72-19.7-3.85l-0.199-0.37c0,0,14.21,2.9,19.8,4.09
	c1.279,0.28,2.12,0.47,2.221,0.51C444.1,268.82,443.449,268.71,442.07,268.45z"/>
<path d="M461.67,298.48c14,6.52,10.659,15.48,10.659,15.48l-5-0.66c-8.75-19.52-17.54-34.13-25.26-44.85v-0.01
	c-2.88-0.54-8.92-1.72-19.7-3.85l31.131,58.63h-279c0,0,15.33-41.33,30.67-59c0,0,163-10.33,215.33,0
	c0.64,0.13,1.26,0.25,1.869,0.37l-0.199-0.37c0,0,14.21,2.9,19.8,4.09c-13.95-19.38-24.3-26.01-24.3-26.01h-23
	c0-9.34-7.341-8-7.341-8s-133.659-0.67-141.999,0c-8.33,0.66-8,8.66-8,8.66h-22.66c-21,10.67-49.34,71-49.34,71s-2.66,3.34-5-0.66
	c-2.33-4,9-16,9-16s-30.33-4-44.66,6.33c-14.34,10.33-0.34,18.67-0.34,18.67l37,2l-14.66,12v8L123,362.96l-0.811,111.27
	l-0.149,21.699c0.739,1.561,2.39,3.41,6.05,3.961c6.67,1,42.33,0,42.33,0s4.67,0.67,7-5.66c2.34-6.34,0-11.67,0-11.67l43.67,1
	c0,0,20-7.33,20.33-5.67c0.34,1.67,0,3.34,0,3.34l148.34-0.67v-2c0,0,17.66,1,18.33,5.33l44.67-1.33v11c0,0,0.24,6.609,5.439,7.07
	h47.471c3-0.201,4.561-2.561,5.319-4.42c0.221-0.67,0.37-1.441,0.439-2.32c0.09-1.09,0.149-2.24,0.2-3.4l-0.21-16.26L510,362.96
	l-24.33-18.33l-0.67-9l-11.33-12c42.33,1.33,40.659-7,40.659-7C522.329,294.3,447.67,291.96,461.67,298.48z M205.33,450.89
	c0,0-15.66,9.33-24.66,8s-33.34-2.67-33.34-2.67s-13,5-13.33-45h7l9,12.67c0,0,55.67,9,63.33,8.67
	C221,432.22,205.33,450.89,205.33,450.89z M208.67,398.49l-12,6.66c0,0-47.24-3.17-51.13-6.42c-0.771,0.4-1.59,0.56-2.46,0.42
	c-9.221-1.49-12.41-9.33-12.41-9.33s-2-4,0-12.67c2-8.66,6.54-8.5,6.54-8.5c5.88-2.83,19.18,0,19.18,0l66.61,16.5l9.33-5l70.34,2
	c0,0,8.329,1,7.329,7s0.08,18.67,0.08,18.67s-1.75,5.67-6.409,7c-4.671,1.33-45,0-45,0S229,410.49,225,398.49H208.67z
	 M314.329,465.56c-57.999,0-86.659-7.34-88.999-7c0,0,5-16.34,17-22.34s141.67,0,141.67,0s14.67,8,18.67,22.34
	C402.67,458.56,372.329,465.56,314.329,465.56z M447.34,458.89c-8.011,1.33-21.95-8-21.95-8s-13.949-18.67-7.12-18.33
	c6.82,0.33,56.37-8.67,56.37-8.67l8.011-12.67h6.229c-0.301,50-11.87,45-11.87,45S455.35,457.56,447.34,458.89z M487.57,369.28
	c0,0,4.5-0.16,6.47,8.5c1.979,8.67,0,12.67,0,12.67s-3.149,7.84-12.271,9.33c-0.859,0.14-1.67-0.02-2.439-0.42
	c-3.859,3.25-50.569,6.42-50.569,6.42l-11.87-6.66h-16.16c-3.95,12-33.301,16.33-33.301,16.33s-39.891,1.33-44.51,0
	c-4.61-1.33-6.341-7-6.341-7s1.07-12.67,0.08-18.67c-0.989-6,7.25-7,7.25-7l69.57-2l9.229,5l65.891-16.5
	C468.6,369.28,481.76,366.45,487.57,369.28z"/>
</svg>
