<?xml version="1.0" encoding="utf-8"?>
<!-- Generator: Adobe Illustrator 16.0.3, SVG Export Plug-In . SVG Version: 6.00 Build 0)  -->
<!DOCTYPE svg PUBLIC "-//W3C//DTD SVG 1.1//EN" "http://www.w3.org/Graphics/SVG/1.1/DTD/svg11.dtd">
<svg version="1.1" id="Capa_1" xmlns="http://www.w3.org/2000/svg" xmlns:xlink="http://www.w3.org/1999/xlink" x="0px" y="0px"
	 width="595.28px" height="841.89px" viewBox="0 0 595.28 841.89" enable-background="new 0 0 595.28 841.89" xml:space="preserve">
<path fill="#1E1A1A" d="M422.46,449.52l-1.21,15.74c-0.55-0.03-1.1-0.04-1.66-0.04c-18.92,0-34.26,15.08-34.26,33.67
	c0,17.42,13.47,31.76,30.74,33.5l-1.721,22.26c-0.529,6.971-6.33,12.2-12.93,11.7l-237.96-18.36c-6.61-0.51-11.53-6.569-11-13.54
	l1.67-21.619c0.7,0.04,1.41,0.06,2.12,0.06c18.92,0,34.25-15.07,34.25-33.67c0-17.58-13.7-32.01-31.19-33.53l1.26-16.37
	c0.54-6.97,6.33-12.2,12.94-11.689l237.96,18.35C418.08,436.49,423,442.56,422.46,449.52z"/>
<path d="M416.25,405.89l-51,22l-52.75-4.75l20.25-8.75L328,406.6l-34.25,15.29c0,0-114.25-10-124.75-9.75s-11,7.55-11,7.55
	l-9.63,0.95l-1.4-2.52l-10.11-23.26c-0.48-1.1-0.81-2.23-0.99-3.35L416.25,405.89z"/>
<path d="M417.09,406.05l-0.76-0.04l0.1-0.04l-280.38-14.38c-0.93-5.63,1.72-11.21,6.79-13.41l218.9-95.11
	c6.069-2.64,13.33,0.59,16.21,7.2l5.479,12.62c-16.64,2.3-29.43,16.35-29.43,33.33c0,18.6,15.33,33.67,34.25,33.67
	c7.99,0,15.34-2.69,21.17-7.19l11.91,27.42C423.94,396.13,422.03,402.89,417.09,406.05z"/>
<rect x="203.667" y="437.89" transform="matrix(0.9972 0.0743 -0.0743 0.9972 33.6413 -20.2907)" fill="#F9F9F9" width="172" height="8.667"/>
<rect x="194.187" y="532.509" transform="matrix(0.9972 0.0743 -0.0743 0.9972 40.6419 -19.3254)" fill="#F9F9F9" width="172" height="8.668"/>
<path fill="#F9F9F9" d="M306.667,420.89c2.512,0,4.041,1.52,4.596,3.372l63.828-29l-3.585-7.891L297.73,420.89H306.667z"/>
<rect x="170.606" y="339.761" transform="matrix(0.9234 -0.3838 0.3838 0.9234 -112.4051 124.8263)" fill="#F9F9F9" width="172" height="8.667"/>
<polygon fill="#F9F9F9" points="294,404.968 274.361,402.898 261.522,417.904 257.421,398.585 239.183,391.012 256.289,381.143 
	257.855,361.457 272.528,374.675 291.734,370.082 283.697,388.12 "/>
<polygon fill="#F9F9F9" points="300.649,515.571 284.667,503.972 266.051,510.564 272.144,491.779 260.123,476.111 279.871,476.099 
	291.057,459.825 297.169,478.604 316.104,484.212 300.135,495.83 "/>
</svg>
